<svg xmlns="http://www.w3.org/2000/svg" xml:space="preserve" viewBox="0 0 224.07 238.678">
  <path d="M92.34 164.76c-5.409-.644-8.75-1.468-14.62-3.604-6.02-2.19-9.747-4.184-16.204-8.665-2.654-1.841-4.124-3.134-7.593-6.678-5.121-5.23-8.424-9.894-11.589-16.362-3.102-6.341-4.507-11.364-5.573-19.934-.327-2.633-.38-2.781-1.419-3.932-5.374-5.96-9.758-16.106-10.722-24.817-.381-3.447-.644-8.07-.458-8.07.087 0 .29.506.449 1.124 1.473 5.718 3.894 10.74 6.983 14.486 1.16 1.407 5.515 5.842 5.627 5.73.043-.043.31-1.2.594-2.573 1.699-8.198 6.29-17.637 12.06-24.792 6.04-7.488 14.799-14.088 23.416-17.641.945-.39 2.076-.867 2.512-1.061 6.355-2.822 16.568-4.555 25.36-4.305 4.835.138 8.86.71 12.211 1.737 4.06 1.243 7.377 4.302 7.505 6.922.032.655-.413 3.572-.989 6.482-.575 2.91-1.357 6.881-1.736 8.824-.379 1.943-.802 3.745-.942 4.005-.937 1.752-11.36 9.54-18.205 13.602-3.632 2.156-11.584 5.98-12.434 5.98-.124 0 .05-1.28.387-2.843.796-3.69.85-3.958 3.648-18.015l.334-1.676-.955.178c-3.311.615-8.947 3.11-12.46 5.516-2.575 1.764-7.188 6.373-8.915 8.908-1.766 2.593-3.578 6.21-4.438 8.859-1.933 5.956-2.21 13.24-.77 20.24 1.41 6.853 5.743 14.093 11.344 18.954 7.398 6.42 17.622 9.964 27.513 9.538 5.891-.254 11.174-1.588 16.14-4.077 4.173-2.09 6.466-3.757 9.926-7.215 4.555-4.55 7.053-8.502 9.022-14.267 1.243-3.644 1.623-6.088 1.663-10.72l.037-4.214 1.582-1.302c.87-.716 2.046-1.677 2.613-2.135 4.824-3.9 8.427-7.048 13.104-11.452 3.614-3.403 3.805-3.563 3.997-3.35.702.775 2.592 6.794 3.595 11.455.834 3.869 1.15 12.052.645 16.696-1.397 12.86-6.752 24.582-15.733 34.442-7.701 8.455-19.563 15.431-31.36 18.443-5.293 1.352-8.01 1.65-15.76 1.736-4.074.044-8.301-.026-9.392-.156zm-20.36-46.01c-.918-.982-2.472-4.614-3.208-7.498-.561-2.195-1.149-7.712-.967-9.07.092-.688.23-.79 1.272-.941l3.418-.498c5.449-.797 9.994-2.088 16.184-4.595 4.114-1.667 11.6-5.241 12.788-6.105.436-.318 2.163-1.442 3.836-2.497 6.072-3.83 9.34-6.305 17.302-13.11 3.13-2.674 13.286-12.907 17.199-17.328 3.565-4.03 11.55-13.899 14.143-17.483.474-.655 1.756-2.423 2.85-3.929 1.094-1.505 1.95-2.768 1.904-2.806-.158-.13-10.92-5.787-14.504-7.625-1.965-1.007-3.596-1.854-3.626-1.882-.115-.106 10.522-4.395 10.9-4.395.077 0 .645-.23 1.262-.51.616-.281 3.145-1.299 5.62-2.262 2.473-.963 4.854-1.91 5.29-2.104.437-.193 1.568-.65 2.514-1.014 2.238-.862 11.357-4.44 18.389-7.215C194.522 1.946 198.824.27 199.448.079c.61-.188.613-.177.464 1.62-.312 3.784-.74 11.164-1.606 27.74-.703 13.42-1.926 33.503-2.049 33.616-.084.077-3.868-3.396-9.886-9.076-2.506-2.365-4.664-4.3-4.796-4.3-.133 0-1.363 1.394-2.736 3.098-1.372 1.704-2.972 3.638-3.556 4.3-.584.66-1.712 1.975-2.507 2.92-.794.947-1.507 1.78-1.584 1.853-.076.073-1.032 1.144-2.123 2.381-10.674 12.097-18.773 20.113-27.069 26.79-6.798 5.472-8.869 6.97-16.19 11.712-5.133 3.324-13.517 7.694-19.448 10.135-2.13.877-6.854 2.428-7.395 2.428-.181 0-.705.173-1.163.384-2.584 1.19-12.78 3.114-18.297 3.451-1.31.08-3.369.21-4.576.287-2.182.14-2.2.136-2.95-.667zm37.841-81.794c-6.09-1.195-11.581-5.557-13.655-10.847-.804-2.053-1.446-5.208-1.446-7.111 0-2.211 1.084-6.249 2.277-8.48 1.517-2.838 4.681-5.982 7.389-7.342 3.507-1.762 5.756-2.262 9.508-2.116 3.492.136 5.758.775 8.447 2.384 2.96 1.77 6.172 5.57 7.518 8.891 1.344 3.318 1.466 9.038.27 12.622-2.048 6.135-7.451 10.74-13.978 11.912-2.22.399-4.576.431-6.33.087zM88.106 238.544c-7.848-.639-14.311-4.807-17.365-11.197-1.552-3.248-2.033-5.77-1.89-9.909.136-3.945.651-5.921 2.521-9.67 1.738-3.484 6.598-7.496 10.801-8.915 3.449-1.164 8.34-1.56 12.1-.977 4.656.72 9.105 3.25 11.753 6.683l1.403 1.82-1.408 1.09c-.774.601-2.377 1.729-3.563 2.507l-2.156 1.414-1.93-1.921c-2.166-2.155-3.815-3.05-6.445-3.501-2.201-.377-4.934.057-7.148 1.136-5.786 2.82-8.115 10.871-4.963 17.151 1.506 3 3.99 4.823 7.88 5.783 3.613.892 8.078-.418 10.74-3.15.721-.74 1.314-1.417 1.316-1.502.002-.086.109-.321.237-.523.18-.285.312-.297.59-.054.198.172 1.788 1.095 3.535 2.052 1.746.956 3.27 1.825 3.385 1.931.325.298-2.328 4.083-3.726 5.315-3.026 2.667-6.901 4.053-12.756 4.562-.364.032-1.674-.025-2.91-.125zm58.922-.577c-3.728-1.014-5.522-2.065-8.415-4.928-2.575-2.55-3.651-4.246-4.875-7.676-1.942-5.45-1.41-12.115 1.401-17.536 1.773-3.42 6.457-7.548 10.187-8.979 3.575-1.371 8.434-1.62 12.292-.63 2.623.674 4.238 1.486 6.225 3.134l1.257 1.041V183.03l2.844-.029c1.565-.016 3.707-.045 4.762-.066l1.918-.037v27.45l.001 27.451h-9.327l.117-2.23.117-2.23-1.23 1.106c-1.552 1.395-3.26 2.326-5.949 3.24-1.774.604-2.673.737-5.556.818-2.996.085-3.74.016-5.77-.535zm9.394-7.87c2.725-.57 5.658-2.75 7.17-5.33 1.214-2.071 1.586-3.932 1.437-7.188-.167-3.64-.66-5.247-2.254-7.35-2.456-3.243-4.743-4.316-9.184-4.31-2.413.003-2.798.076-4.366.827-3.225 1.545-5.483 4.191-6.21 7.28-.528 2.235-.52 6.348.015 8.18.608 2.081 2.077 4.582 3.22 5.481 2.943 2.317 6.54 3.169 10.172 2.41zm44.529 8.322c-5.728-1.21-8.35-2.423-11.843-5.48-5.952-5.207-7.968-15.149-4.675-23.059 2.25-5.403 7.58-10.03 13.324-11.568 2.769-.741 8.268-.794 11.261-.107 9.305 2.133 15.43 10.556 15.034 20.675l-.082 2.117-15.677.068c-13.678.06-15.676.119-15.676.462 0 .884 1.708 3.924 2.865 5.099 3.103 3.152 8.583 4.519 13.485 3.363 1.695-.4 4.772-1.961 6.35-3.223l.873-.697 2.633 2.746c1.873 1.953 2.59 2.879 2.487 3.207-.08.253-.72.972-1.421 1.597-3.693 3.292-9.005 5.005-15.33 4.942-1.693-.017-3.317-.081-3.608-.142zm13.884-24.103c-.012-.94-1.268-3.488-2.475-5.025-2.141-2.726-5.026-3.887-9.265-3.73-2.404.089-2.897.195-4.447.958-2.276 1.12-4.698 3.659-5.477 5.739-1.041 2.784-2.14 2.521 10.558 2.521 10.41 0 11.112-.03 11.106-.463zM.11 237.82c-.06-.06-.11-11.818-.11-26.128v-26.017h9.922l-.08 25.987c-.043 14.292-.104 26.011-.134 26.042-.11.11-9.491.223-9.598.116zm21.508-1.147c-.095-.805-.034-36.597.066-38.37.006-.113 2.006-.173 4.444-.133l4.431.073.133 2.326.132 2.327 1.587-1.365c2.292-1.969 4.858-3.125 8-3.606 2.94-.449 6.45-.325 8.934.316 4.06 1.048 7.671 3.914 9.253 7.342 1.854 4.021 1.817 3.664 1.923 18.655l.095 13.56h-9.551l-.01-11.443c-.01-13.862-.116-14.585-2.56-17.603-2.77-3.418-9.214-3.757-13.228-.695-1.364 1.04-2.884 3.244-3.541 5.135-.577 1.66-.602 2.12-.713 13.163l-.115 11.443h-9.146zm93.195-4.894c-.018-6.452-.014-31.03.005-32.676l.011-.993h9.525v39.688h-9.524zm2.598-40.13c-1.481-.53-2.24-1.107-3.038-2.312-.617-.932-.719-1.357-.712-2.97.005-1.223.16-2.17.442-2.703 1.526-2.883 5.72-3.979 8.737-2.282 1.974 1.11 2.973 2.777 2.958 4.934-.016 2.338-1.094 4.06-3.22 5.142-1.296.66-3.611.746-5.167.19z"/>
</svg>
